<svg xmlns="http://www.w3.org/2000/svg" viewBox="0 0 40 40"><path fill="#010202" d="M34.7 36.5H5.4c-2.9 0-5.3-2.4-5.3-5.3V9.8c0-2.9 2.4-5.3 5.3-5.3h29.3c2.9 0 5.3 2.4 5.3 5.3v21.3c0 3-2.4 5.4-5.3 5.4zM5.4 6.5C3.5 6.5 2 8 2 9.8v21.3c0 1.8 1.5 3.3 3.3 3.3h29.3c1.8 0 3.3-1.5 3.3-3.3V9.8c0-1.8-1.5-3.3-3.3-3.3H5.4z"/><path fill="#010202" d="M20 23.9c-1.7 0-3.3-.8-4.5-2.1L6 10.4c-.4-.4-.3-1 .1-1.4.4-.4 1.1-.3 1.4.1l9.6 11.5c.7.9 1.8 1.4 2.9 1.4 1.1 0 2.2-.5 2.9-1.4l9.5-11.4c.4-.4 1-.5 1.4-.1.4.4.5 1 .1 1.4l-9.5 11.4c-1 1.3-2.6 2-4.4 2zM35.5 31.8c-.3 0-.6-.1-.8-.4l-6.9-8.2c-.4-.4-.3-1.1.1-1.4.4-.4 1.1-.3 1.4.1l6.9 8.2c.4.4.3 1.1-.1 1.4-.1.2-.4.3-.6.3zM4.5 31.7c-.2 0-.5-.1-.6-.2-.4-.4-.5-1-.1-1.4l6.8-8.1c.4-.4 1-.5 1.4-.1.4.4.5 1 .1 1.4l-6.8 8.1c-.2.2-.5.3-.8.3z"/></svg>