<svg xmlns="http://www.w3.org/2000/svg" width="32" height="32"><path d="M16 1.5C7.998 1.5 1.5 7.998 1.5 16c0 8.002 6.498 14.5 14.5 14.5 8.002 0 14.5-6.498 14.5-14.5 0-8.002-6.498-14.5-14.5-14.5zm0 1c7.462 0 13.5 6.038 13.5 13.5S23.462 29.5 16 29.5 2.5 23.462 2.5 16 8.538 2.5 16 2.5zm0 2.113C9.717 4.613 4.613 9.717 4.613 16S9.717 27.387 16 27.387 27.387 22.283 27.387 16 22.283 4.613 16 4.613zm0 1A10.38 10.38 0 0 1 26.387 16 10.38 10.38 0 0 1 16 26.387 10.38 10.38 0 0 1 5.613 16 10.38 10.38 0 0 1 16 5.613zm-1.5 2.889v2.135c-1.04.159-1.998.688-2.533 1.615a3.504 3.504 0 0 0 0 3.5c.535.927 1.492 1.456 2.533 1.615v1.135h-3v3h3v2h3v-2.135c1.04-.16 1.996-.688 2.531-1.615a3.504 3.504 0 0 0 0-3.5c-.535-.927-1.49-1.456-2.531-1.615v-1.135h3v-3h-3v-2h-3zm1 1h1v2h3v1h-3v3h.5a2.502 2.502 0 0 1 2.164 3.75A2.502 2.502 0 0 1 17 20.502h-.5v2h-1v-2h-3v-1h3v-3H15c-.892 0-1.72-.478-2.166-1.25a2.504 2.504 0 0 1 0-2.5A2.506 2.506 0 0 1 15 11.502h.5v-2zm-.5 3c-.535 0-1.033.286-1.3.75a1.503 1.503 0 0 0 0 1.5c.267.464.765.75 1.3.75h.5v-3H15zm1.5 4v3h.5c.535 0 1.032-.288 1.299-.75a1.503 1.503 0 0 0 0-1.5 1.503 1.503 0 0 0-1.299-.75h-.5z" color="#000" font-family="sans-serif" font-weight="400" overflow="visible" style="line-height:normal;text-indent:0;text-align:start;text-decoration-line:none;text-decoration-style:solid;text-decoration-color:#000;text-transform:none;block-progression:tb;white-space:normal;isolation:auto;mix-blend-mode:normal;solid-color:#000;solid-opacity:1"/></svg>