<svg xmlns="http://www.w3.org/2000/svg" width="32" height="32"><path d="M13.813 1.5c-.216.038-.29.118-.376.188-.085.069-.138.134-.218.218-.161.17-.332.393-.5.594-.168.201-.338.387-.469.531-.059.065-.088.122-.125.156-.05 0-.123-.018-.219-.03-.192-.027-.462-.08-.719-.126-.256-.045-.487-.069-.718-.094-.116-.012-.234-.034-.344-.03-.11 0-.218-.017-.406.093-.189.11-.225.218-.281.313-.057.093-.11.173-.157.28-.094.215-.191.473-.281.72-.09.246-.176.506-.25.687-.03.072-.04.111-.063.156h-.03c-.049.014-.106.045-.188.063-.19.042-.431.079-.688.125-.256.046-.524.1-.75.156-.113.028-.21.054-.312.094a.733.733 0 0 0-.344.25c-.139.167-.135.267-.156.375-.021.107-.024.226-.032.343-.015.234-.03.487-.03.75-.001.264.007.523 0 .72-.005.097-.025.168-.032.218-.04.03-.09.05-.156.094-.164.104-.4.242-.625.375-.226.132-.432.275-.625.406-.097.065-.2.115-.282.188-.082.072-.176.14-.25.343-.073.204-.047.298-.03.406.016.109.06.2.093.313.065.225.162.503.25.75s.16.47.219.656c.03.093.052.17.062.219-.027.043-.072.088-.125.156-.118.155-.27.36-.437.563a12.16 12.16 0 0 0-.469.594c-.068.095-.135.184-.188.28-.052.097-.124.191-.124.407 0 .216.072.279.124.375.053.096.12.187.188.281.137.19.302.392.469.594.167.202.319.407.437.563.053.069.098.113.125.156.004.01-.003.026 0 .031-.011.049-.037.107-.062.188-.06.186-.13.44-.219.687-.088.247-.185.494-.25.719-.032.112-.077.204-.094.312-.016.109-.042.203.032.407.073.203.167.27.25.343.082.073.184.122.28.188.194.13.4.274.626.406.225.132.46.27.625.375.066.042.116.064.156.094.007.05.027.12.031.218.008.197 0 .456 0 .72 0 .262.016.547.032.78.007.117.01.205.03.313.022.108.018.208.157.375s.242.21.344.25c.102.04.2.066.312.094.226.056.494.11.75.156.257.046.499.083.688.125.082.018.14.049.187.063h.031c.023.045.033.112.063.187.074.181.16.41.25.656.016.045.046.08.063.125L7 27.25c-.198.34.182.821.563.719l2.25-.594.593 2.25c.103.379.742.465.938.125l1.937-3.594.031.032c.123.117.171.222.5.28.216.039.303 0 .407-.03.103-.037.208-.073.312-.125.209-.104.43-.245.656-.375.226-.131.454-.253.626-.344A3.18 3.18 0 0 1 16 25.5c.045.02.116.056.188.094.171.09.398.213.625.343.226.131.447.272.656.375.104.052.209.09.312.125.104.037.191.07.407.032a.638.638 0 0 0 .343-.157l2 3.438c.196.34.835.254.938-.125l.593-2.25 2.25.594c.38.102.761-.379.563-.719l-2-3.25c.045-.116.083-.227.125-.344.09-.247.176-.475.25-.656.03-.075.04-.142.063-.188h.03c.049-.014.106-.044.188-.062.19-.042.431-.079.688-.125.256-.046.524-.1.75-.156.113-.028.21-.054.312-.094a.733.733 0 0 0 .344-.25c.139-.167.135-.267.156-.375.021-.108.024-.195.032-.313.015-.233.03-.518.03-.78.001-.264-.007-.523 0-.72.005-.098.025-.168.032-.218.04-.03.09-.052.156-.094.164-.105.4-.243.625-.375.225-.132.432-.275.625-.406.097-.066.2-.115.282-.188.082-.073.176-.14.25-.343.073-.204.016-.298 0-.407-.017-.108-.03-.2-.063-.312-.065-.225-.162-.472-.25-.719s-.16-.5-.219-.688a2.763 2.763 0 0 1-.062-.218c.027-.043.072-.088.125-.156.118-.156.27-.361.437-.563.167-.202.332-.404.469-.594.069-.095.135-.185.188-.281.052-.096.125-.16.125-.375 0-.216-.073-.31-.125-.406-.053-.096-.12-.187-.188-.281-.137-.19-.302-.392-.469-.594-.167-.202-.319-.408-.437-.563-.053-.069-.098-.114-.125-.156 0 0-.014-.053 0-.031.011-.05.037-.107.062-.188.06-.186.13-.409.219-.656.088-.247.185-.525.25-.75.032-.113.046-.204.063-.313.016-.108.073-.202 0-.406-.074-.203-.168-.27-.25-.344-.083-.072-.185-.121-.282-.187-.193-.13-.4-.274-.625-.406-.225-.133-.461-.27-.625-.375-.066-.042-.116-.064-.156-.094-.007-.05-.027-.12-.031-.219-.008-.196 0-.455 0-.719 0-.263-.016-.516-.032-.75-.007-.117-.01-.236-.03-.343-.022-.108-.018-.208-.157-.375a.731.731 0 0 0-.344-.25c-.102-.04-.2-.066-.312-.094-.226-.056-.494-.11-.75-.156-.257-.046-.499-.083-.688-.125-.082-.018-.14-.048-.187-.063h-.032c-.021-.045-.033-.084-.062-.156-.074-.181-.16-.44-.25-.688-.09-.246-.187-.504-.281-.718-.047-.108-.1-.187-.157-.281-.056-.095-.092-.203-.28-.313-.189-.11-.297-.09-.407-.094-.11 0-.228.02-.344.031-.231.026-.462.05-.718.094-.257.045-.527.1-.72.125-.082.011-.137.028-.187.031-.036-.033-.09-.083-.156-.156-.13-.144-.3-.33-.469-.531-.168-.201-.339-.425-.5-.594-.08-.085-.133-.15-.218-.218-.086-.07-.16-.15-.375-.188-.216-.038-.303 0-.407.031-.103.036-.208.105-.312.157-.21.103-.43.212-.657.343-.226.131-.453.284-.625.375-.075.04-.141.074-.187.094a3.083 3.083 0 0 1-.188-.094c-.171-.09-.399-.244-.624-.375-.226-.13-.448-.24-.657-.344-.104-.052-.209-.12-.312-.156-.104-.036-.191-.07-.406-.031zM14 2.531c.032.014.053.011.094.031.164.083.37.215.594.344.222.13.453.268.656.375.101.054.217.086.312.125.095.04.16.094.344.094.185 0 .249-.054.344-.094.095-.039.21-.07.312-.125.203-.107.434-.246.657-.375.222-.129.429-.262.593-.344.041-.02.062-.017.094-.03.026.023.03.028.063.062.127.133.303.333.468.531.166.198.346.392.5.563.077.084.143.18.219.25.076.07.14.123.313.187a.737.737 0 0 0 .343.063c.103 0 .2-.017.313-.032.227-.03.497-.08.75-.125.253-.044.505-.105.687-.125h.094c.017.033.043.049.063.094.074.17.161.413.25.656.088.244.163.505.25.719.043.107.077.19.125.281.047.091.078.194.218.313s.246.124.344.156c.098.032.2.038.313.063.224.049.465.11.718.156.253.045.51.08.688.125.044.01.06.021.093.031.005.039.028.071.032.125.012.185 0 .428 0 .688 0 .26-.01.519 0 .75.004.115.017.241.031.343.014.103.003.185.094.344.09.159.169.187.25.25.08.063.184.126.281.188.194.123.403.275.625.406.222.13.441.24.594.344.038.025.065.041.093.062-.008.037-.016.075-.03.125a11.73 11.73 0 0 1-.22.656c-.087.244-.18.499-.25.719-.034.11-.04.212-.062.313-.022.1-.063.164-.031.343.031.18.07.256.125.344.054.088.117.158.187.25.14.183.335.394.5.594.165.199.298.412.407.562.03.042.041.062.062.094-.02.03-.035.056-.063.094-.108.15-.24.332-.406.531-.165.2-.36.41-.5.594-.07.09-.133.162-.187.25a.82.82 0 0 0-.125.344c-.032.18.01.274.031.374.022.101.028.203.063.313.069.22.162.444.25.688.087.243.167.509.218.687.013.045.023.059.032.094l-.094.062c-.153.104-.372.245-.594.375-.222.13-.431.251-.625.375-.097.062-.2.124-.281.188-.081.063-.16.09-.25.25-.091.159-.08.272-.094.375-.014.102-.027.197-.031.312-.01.231 0 .49 0 .75s.012.502 0 .688c-.004.054-.027.086-.032.125-.033.01-.049.02-.093.031-.178.044-.435.079-.688.125-.253.046-.494.107-.718.156-.113.025-.215.03-.313.063a.896.896 0 0 0-.344.187c-.14.12-.17.19-.218.282a3.065 3.065 0 0 0-.125.28c-.087.215-.162.476-.25.72-.089.243-.176.486-.25.656-.02.045-.046.06-.063.093h-.094c-.182-.02-.434-.08-.687-.125-.253-.044-.523-.094-.75-.125a3.33 3.33 0 0 0-.313-.03c-.103 0-.17-.001-.343.062a.795.795 0 0 0-.313.187c-.076.07-.142.165-.219.25-.154.171-.334.364-.5.563-.165.198-.341.397-.468.531l-.063.063c-.032-.014-.053-.012-.094-.032-.164-.082-.37-.214-.593-.343-.223-.13-.454-.268-.657-.375-.101-.054-.217-.086-.312-.125-.095-.04-.16-.094-.344-.094-.185 0-.249.053-.344.093-.095.04-.21.072-.312.125-.203.108-.434.246-.656.375-.223.13-.43.263-.594.344-.054.027-.088.017-.125.032a6.13 6.13 0 0 1-.281-.313c-.193-.224-.397-.491-.594-.719-.099-.113-.19-.222-.281-.312-.093-.09-.16-.172-.376-.25a.737.737 0 0 0-.343-.063c-.103 0-.2.017-.313.032-.227.03-.497.08-.75.125-.253.044-.505.105-.687.125h-.094c-.017-.034-.043-.05-.063-.094-.074-.17-.161-.413-.25-.657-.088-.243-.163-.504-.25-.718a3.114 3.114 0 0 0-.124-.282c-.048-.09-.079-.162-.22-.28A.896.896 0 0 0 9 21.843c-.098-.032-.2-.038-.313-.063-.224-.049-.465-.11-.718-.156-.253-.046-.51-.081-.688-.125-.044-.011-.06-.021-.093-.031-.005-.04-.028-.071-.032-.125-.012-.186 0-.428 0-.688 0-.26.01-.519 0-.75-.004-.115-.017-.21-.031-.312-.014-.103-.003-.216-.094-.375-.09-.16-.169-.187-.25-.25-.08-.064-.184-.126-.281-.188-.194-.124-.434-.244-.656-.375-.223-.13-.41-.271-.563-.375-.038-.026-.065-.041-.093-.062.008-.035.018-.049.03-.094.052-.178.132-.444.22-.688.087-.243.18-.467.25-.687.034-.11.04-.212.062-.313.022-.1.063-.195.031-.375a.825.825 0 0 0-.125-.343c-.054-.088-.117-.159-.187-.25-.14-.183-.336-.395-.5-.594-.165-.2-.298-.381-.407-.531-.027-.038-.043-.064-.062-.094.02-.032.032-.052.063-.094.108-.15.241-.363.406-.562.164-.2.36-.41.5-.594.07-.092.133-.163.187-.25a.822.822 0 0 0 .125-.344c.032-.18-.01-.243-.031-.344-.022-.1-.028-.202-.063-.312-.069-.22-.162-.475-.25-.719a11.732 11.732 0 0 1-.218-.656c-.015-.05-.023-.088-.032-.125.029-.021.056-.037.094-.063.153-.103.34-.213.563-.343.222-.13.462-.283.656-.406.097-.063.2-.125.281-.188.081-.063.16-.091.25-.25.091-.159.08-.241.094-.344.014-.102.027-.228.031-.344.01-.23 0-.49 0-.75s-.012-.502 0-.687c.004-.054.027-.086.032-.125.033-.01.049-.02.093-.031.178-.044.435-.08.688-.125.253-.046.494-.107.718-.157.113-.025.215-.031.313-.062.098-.032.203-.037.344-.156.14-.12.17-.221.219-.313.047-.09.081-.174.124-.281.087-.214.162-.475.25-.719.089-.243.176-.486.25-.656.02-.045.046-.06.063-.094h.094c.182.02.434.081.687.125.253.044.523.094.75.125.114.016.21.028.313.032.103 0 .17-.001.344-.063a.795.795 0 0 0 .312-.188c.076-.07.142-.164.219-.25.154-.17.334-.364.5-.562.165-.198.341-.398.469-.531.031-.034.036-.038.062-.063zM15.938 5c-4.965 0-9 4.035-9 9s4.035 9 9 9c4.964 0 9-4.035 9-9s-4.036-9-9-9zm0 1c4.424 0 8 3.576 8 8 0 4.424-3.576 8-8 8-4.425 0-8-3.576-8-8 0-4.424 3.575-8 8-8zm-2.5 4a1.5 1.5 0 0 0-1.063.438 1.51 1.51 0 0 0 0 2.124 1.51 1.51 0 0 0 2.125 0 1.51 1.51 0 0 0 0-2.124A1.5 1.5 0 0 0 13.437 10zm5.843 0a.5.5 0 0 0-.187.125l-7 7a.508.508 0 1 0 .719.719l6.968-7a.5.5 0 0 0-.5-.844zm-5.843 1a.45.45 0 0 1 .343.125c.2.2.2.518 0 .719-.2.2-.487.2-.687 0-.2-.2-.2-.518 0-.719.1-.1.217-.125.344-.125zm5 4a1.5 1.5 0 0 0-1.063.438 1.51 1.51 0 0 0 0 2.124 1.51 1.51 0 0 0 2.125 0 1.51 1.51 0 0 0 0-2.125A1.5 1.5 0 0 0 18.437 15zm0 1c.126 0 .274.056.375.156.2.2.2.518 0 .719-.201.2-.519.2-.72 0-.2-.2-.2-.518 0-.719.101-.1.218-.156.345-.156zm-6.344 8.781c.03.012.02.03.031.032.057.056.129.146.219.25.068.079.143.188.219.28l-1.5 2.845-.407-1.563c-.068-.253-.372-.412-.625-.344l-1.562.438 1.094-1.875c.038.043.079.08.156.125.188.11.296.09.406.093.11 0 .228.014.344 0 .231-.024.462-.08.719-.125.256-.045.526-.099.718-.125.083-.01.138-.028.188-.03zm7.781 0c.05 0 .123.018.219.032.192.026.462.08.718.125.257.045.488.1.72.125.115.013.233 0 .343 0 .11 0 .218.016.406-.094l1.125 1.75-1.562-.438c-.253-.068-.557.09-.625.344l-.407 1.594-1.593-2.657c.02-.023.043-.038.062-.062.168-.201.338-.418.469-.563.059-.065.088-.121.125-.156z" color="#000" font-family="sans-serif" font-weight="400" overflow="visible" style="text-indent:0;text-align:start;line-height:normal;text-transform:none;block-progression:tb"/></svg>