<svg xmlns="http://www.w3.org/2000/svg" width="32" height="32"><path d="M18.807 1023.378a.5.5 0 0 0-.346.146l-4.486 4.485A6 6 0 0 0 9 1025.362c-3.308 0-6 2.692-6 6 0 1.77.776 3.36 2 4.46v10.54c0 1.1.9 2 2 2h19c1.1 0 2-.9 2-2v-13c0-1.1-.9-2-2-2l-2.924-5.515a.5.5 0 0 0-.449-.266.5.5 0 0 0-.227.059l-.73.387-2.502-2.502a.5.5 0 0 0-.361-.147zm.007 1.207 1.932 1.932-5.986 3.175a5.947 5.947 0 0 0-.283-.77l4.337-4.337zM9 1026.362c2.767 0 5 2.233 5 5 0 2.768-2.233 5-5 5s-5-2.232-5-5c0-2.767 2.233-5 5-5zm13.428.395 2.441 4.605H15c0-.218-.014-.434-.037-.646l7.465-3.96zm-13.711.605v.926a2.414 2.414 0 0 0-.682.182c-.203.09-.377.205-.521.345-.14.14-.25.306-.328.496-.074.191-.112.401-.112.631 0 .25.044.472.13.662.088.191.213.36.376.506.166.146.367.274.6.383.236.107.503.2.799.281.221.073.409.15.564.229.159.079.287.163.383.256.1.093.172.192.217.299a.902.902 0 0 1 .066.35c0 .15-.027.29-.082.413a.857.857 0 0 1-.244.31 1.14 1.14 0 0 1-.389.198 1.835 1.835 0 0 1-.943.013.996.996 0 0 1-.383-.193.994.994 0 0 1-.277-.375 1.458 1.458 0 0 1-.106-.594H6.81c0 .317.05.589.15.816.1.225.232.412.398.56.17.15.366.262.584.34.219.08.443.132.676.157v.808h.772v-.808c.277-.028.526-.084.748-.168a1.77 1.77 0 0 0 .566-.338c.155-.14.276-.305.361-.496.086-.194.127-.411.127-.652a1.63 1.63 0 0 0-.123-.653 1.426 1.426 0 0 0-.359-.498 2.306 2.306 0 0 0-.588-.375 5.399 5.399 0 0 0-.805-.295 4.724 4.724 0 0 1-.6-.23 1.81 1.81 0 0 1-.388-.258.815.815 0 0 1-.215-.293 1.05 1.05 0 0 1-.062-.367c0-.146.022-.28.062-.4a.823.823 0 0 1 .522-.51c.13-.048.281-.07.459-.07.17 0 .322.03.455.096a.932.932 0 0 1 .334.27c.089.114.155.25.199.407.048.158.072.332.072.52h.971c0-.57-.143-1.02-.428-1.348-.28-.33-.68-.533-1.197-.603v-.93h-.783zm6.191 5H26c.563 0 1 .438 1 1v4h-5.5a2.506 2.506 0 0 0-2.5 2.5c0 1.377 1.124 2.5 2.5 2.5H27v4c0 .563-.437 1-1 1H7c-.563 0-1-.437-1-1v-9.812a5.956 5.956 0 0 0 3 .812c2.966 0 5.43-2.168 5.908-5zm.092 1v1h1v-1h-1zm2 0v1h1v-1h-1zm2 0v1h1v-1h-1zm2 0v1h1v-1h-1zm2 0v1h1v-1h-1zm2 0v1h1v-1h-1zm0 2v1h1v-1h-1zm-18 2v1h1v-1H7zm14.5 1H27v3h-5.5c-.84 0-1.5-.66-1.5-1.5s.66-1.5 1.5-1.5zm-14.5 1v1h1v-1H7zm14 0v1h1v-1h-1zm-14 2v1h1v-1H7zm0 2v1h1v-1H7zm18 0v1h1v-1h-1zm-18 2v1h1v-1H7zm2 0v1h1v-1H9zm2 0v1h1v-1h-1zm2 0v1h1v-1h-1zm2 0v1h1v-1h-1zm2 0v1h1v-1h-1zm2 0v1h1v-1h-1zm2 0v1h1v-1h-1zm2 0v1h1v-1h-1zm2 0v1h1v-1h-1z" color="#000" font-family="sans-serif" font-weight="400" overflow="visible" style="line-height:normal;text-indent:0;text-align:start;text-decoration-line:none;text-decoration-style:solid;text-decoration-color:#000;text-transform:none;block-progression:tb;white-space:normal;isolation:auto;mix-blend-mode:normal;solid-color:#000;solid-opacity:1" transform="translate(0 -1020.362)"/></svg>