<?xml version="1.0" encoding="utf-8"?>
<!-- Generator: Adobe Illustrator 26.5.1, SVG Export Plug-In . SVG Version: 6.00 Build 0)  -->
<svg version="1.1" id="Layer_1" xmlns="http://www.w3.org/2000/svg" xmlns:xlink="http://www.w3.org/1999/xlink" x="0px" y="0px"
	 viewBox="0 0 155.5 38.2" style="enable-background:new 0 0 155.5 38.2;" xml:space="preserve">
<style type="text/css">
	.st0{fill:none;}
	.st1{enable-background:new    ;}
	.st2{fill:none;stroke:#D2B48C;stroke-width:2;stroke-miterlimit:10;}
	.st3{fill:none;stroke:#D2B48C;stroke-width:1.5;stroke-miterlimit:10;}
</style>
<rect x="44.3" y="7.1" class="st0" width="106.6" height="22.3"/>
<g class="st1">
	<path d="M50.6,24.3c0,0.6,0,1,0.1,1.3c0.1,0.3,0.2,0.6,0.3,0.8c0.1,0.2,0.3,0.3,0.5,0.5s0.6,0.2,1,0.3v0.7h-6.2v-0.7
		c0.6-0.2,1-0.3,1.2-0.5c0.2-0.2,0.3-0.4,0.4-0.8c0.1-0.3,0.1-0.9,0.1-1.6V12.1c0-0.7,0-1.1-0.1-1.4c0-0.3-0.1-0.5-0.2-0.7
		c-0.1-0.2-0.3-0.3-0.4-0.4c-0.2-0.1-0.5-0.2-0.9-0.3V8.6h7c2.2,0,3.9,0.4,4.9,1.3c1.1,0.8,1.6,2.1,1.6,3.9c0,1-0.2,1.9-0.5,2.6
		c-0.3,0.8-0.8,1.4-1.4,1.9s-1.4,0.9-2.2,1.1s-1.7,0.3-2.7,0.3c-1,0-1.9,0-2.4-0.1V24.3z M50.6,18.4h1.6c1.1,0,1.9-0.1,2.6-0.4
		c0.7-0.3,1.2-0.7,1.6-1.4c0.4-0.6,0.6-1.5,0.6-2.6c0-0.8-0.1-1.5-0.3-2s-0.5-1-0.9-1.3c-0.4-0.3-0.8-0.6-1.4-0.7s-1.1-0.2-1.7-0.2
		c-0.9,0-1.6,0-2.1,0.1V18.4z"/>
	<path d="M62.4,27.2c0.4-0.1,0.6-0.2,0.8-0.3c0.2-0.1,0.3-0.2,0.4-0.4c0.1-0.2,0.2-0.4,0.3-0.7c0.1-0.3,0.1-0.8,0.1-1.5v-6.2
		c0-0.6,0-1.1,0-1.5s-0.1-0.7-0.2-0.9c-0.1-0.2-0.3-0.4-0.5-0.5c-0.2-0.1-0.6-0.2-1-0.3v-0.8l3.3-0.1h0.9v10.1c0,0.8,0,1.4,0.1,1.7
		s0.2,0.6,0.4,0.7c0.2,0.2,0.6,0.3,1,0.4v0.7h-5.6V27.2z M66.4,8.8v2.7h-2.6V8.8H66.4z"/>
	<path d="M84.2,27.9h-5.6v-0.7c0.4-0.1,0.6-0.2,0.8-0.3s0.3-0.2,0.4-0.4c0.1-0.2,0.2-0.4,0.3-0.7c0.1-0.3,0.1-0.8,0.1-1.4v-3.7
		c0-0.7,0-1.3-0.1-1.8c0-0.5-0.1-1-0.2-1.3c-0.1-0.3-0.2-0.6-0.3-0.8c-0.1-0.2-0.3-0.4-0.5-0.5c-0.2-0.1-0.4-0.2-0.6-0.3
		c-0.2-0.1-0.5-0.1-0.9-0.1s-0.7,0.1-1,0.2c-0.3,0.1-0.7,0.4-1.1,0.8c-0.4,0.4-0.7,0.7-0.9,1.1s-0.3,0.8-0.3,1.2v5.3
		c0,0.8,0,1.4,0.1,1.7s0.2,0.6,0.4,0.7c0.2,0.2,0.6,0.3,1,0.4v0.7h-5.6v-0.7c0.4-0.1,0.6-0.2,0.8-0.3c0.2-0.1,0.3-0.2,0.4-0.4
		c0.1-0.2,0.2-0.4,0.3-0.7c0.1-0.3,0.1-0.8,0.1-1.5v-6.2c0-0.6,0-1.1,0-1.5s-0.1-0.7-0.2-0.9c-0.1-0.2-0.3-0.4-0.5-0.5
		c-0.2-0.1-0.6-0.2-1-0.3v-0.8l3.3-0.1h0.9l-0.2,2.3l0.2,0.1c0.7-0.7,1.3-1.2,1.7-1.5c0.4-0.3,0.9-0.5,1.3-0.7
		c0.4-0.2,0.9-0.2,1.4-0.2c0.5,0,1,0.1,1.4,0.2c0.4,0.1,0.8,0.3,1.1,0.5c0.3,0.2,0.6,0.5,0.8,0.9c0.2,0.4,0.3,0.8,0.4,1.3
		c0.1,0.5,0.1,1.2,0.1,1.9v5.3c0,0.7,0,1.1,0.1,1.4s0.1,0.5,0.2,0.7s0.2,0.3,0.4,0.4s0.5,0.2,0.9,0.3V27.9z"/>
	<path d="M100.4,27.9h-5.6v-0.7c0.4-0.1,0.6-0.2,0.8-0.3c0.2-0.1,0.3-0.2,0.4-0.4c0.1-0.2,0.2-0.4,0.3-0.7c0.1-0.3,0.1-0.8,0.1-1.4
		v-3.7c0-0.7,0-1.3-0.1-1.8c0-0.5-0.1-1-0.2-1.3s-0.2-0.6-0.3-0.8c-0.1-0.2-0.3-0.4-0.5-0.5c-0.2-0.1-0.4-0.2-0.6-0.3
		c-0.2-0.1-0.5-0.1-0.9-0.1s-0.7,0.1-1,0.2c-0.3,0.1-0.7,0.4-1.1,0.8c-0.4,0.4-0.7,0.7-0.9,1.1c-0.2,0.3-0.3,0.8-0.3,1.2v5.3
		c0,0.8,0,1.4,0.1,1.7c0.1,0.3,0.2,0.6,0.4,0.7c0.2,0.2,0.6,0.3,1,0.4v0.7h-5.6v-0.7c0.4-0.1,0.6-0.2,0.8-0.3
		c0.2-0.1,0.3-0.2,0.4-0.4c0.1-0.2,0.2-0.4,0.3-0.7c0.1-0.3,0.1-0.8,0.1-1.5v-6.2c0-0.6,0-1.1,0-1.5s-0.1-0.7-0.2-0.9
		c-0.1-0.2-0.3-0.4-0.5-0.5c-0.2-0.1-0.6-0.2-1-0.3v-0.8l3.3-0.1h0.9l-0.2,2.3l0.2,0.1c0.7-0.7,1.3-1.2,1.7-1.5
		c0.4-0.3,0.9-0.5,1.3-0.7c0.4-0.2,0.9-0.2,1.4-0.2c0.5,0,1,0.1,1.4,0.2c0.4,0.1,0.8,0.3,1.1,0.5c0.3,0.2,0.6,0.5,0.8,0.9
		c0.2,0.4,0.3,0.8,0.4,1.3c0.1,0.5,0.1,1.2,0.1,1.9v5.3c0,0.7,0,1.1,0.1,1.4c0,0.3,0.1,0.5,0.2,0.7c0.1,0.2,0.2,0.3,0.4,0.4
		c0.2,0.1,0.5,0.2,0.9,0.3V27.9z"/>
	<path d="M111,25.9l-0.2-0.1c-0.8,0.8-1.6,1.4-2.3,1.8c-0.7,0.3-1.5,0.5-2.3,0.5c-0.7,0-1.3-0.1-1.9-0.4c-0.5-0.3-1-0.7-1.3-1.2
		c-0.3-0.5-0.4-1.1-0.4-1.7c0-1.4,0.7-2.4,2-3.2c1.4-0.8,3.4-1.2,6.1-1.3v-0.9c0-1-0.1-1.8-0.3-2.3c-0.2-0.6-0.5-1-0.9-1.2
		c-0.4-0.3-0.9-0.4-1.6-0.4c-0.7,0-1.3,0.2-1.8,0.6c-0.4,0.4-0.8,1-1,1.7h-1.9v-1.8c0.9-0.5,1.7-0.8,2.3-1c0.6-0.2,1.2-0.4,1.8-0.5
		c0.6-0.1,1.2-0.2,1.8-0.2c0.9,0,1.7,0.1,2.3,0.4c0.6,0.3,1,0.8,1.3,1.4c0.3,0.6,0.4,1.5,0.4,2.8v4.9c0,0.7,0,1.2,0,1.5
		c0,0.3,0,0.6,0.1,0.8c0,0.2,0.1,0.4,0.2,0.6c0.1,0.1,0.2,0.3,0.4,0.4c0.2,0.1,0.5,0.2,0.9,0.3v0.7h-3.9L111,25.9z M110.8,21.4
		c-1.9,0-3.4,0.3-4.3,0.8c-1,0.5-1.4,1.2-1.4,2.2c0,0.5,0.1,1,0.3,1.3c0.2,0.3,0.5,0.5,0.8,0.6c0.3,0.1,0.7,0.2,1.2,0.2
		c0.6,0,1.2-0.2,1.7-0.5c0.5-0.3,0.9-0.7,1.2-1.2c0.3-0.5,0.4-1,0.4-1.4V21.4z"/>
	<path d="M127.5,14.7v3h-1.8c-0.2-0.6-0.4-1.1-0.6-1.5c-0.2-0.4-0.5-0.6-0.8-0.7c-0.3-0.1-0.7-0.2-1.2-0.2c-0.7,0-1.2,0.2-1.8,0.6
		c-0.5,0.4-0.9,1.1-1.2,1.9c-0.3,0.9-0.4,1.9-0.4,3.2c0,0.8,0.1,1.5,0.2,2.2c0.1,0.7,0.3,1.2,0.6,1.7c0.3,0.5,0.6,0.8,1.1,1.1
		c0.5,0.3,1,0.4,1.7,0.4c0.7,0,1.3-0.1,1.8-0.4s1.1-0.7,1.7-1.3l0.8,0.9c-0.5,0.5-0.9,0.9-1.3,1.2s-0.8,0.5-1.2,0.7
		c-0.4,0.2-0.8,0.3-1.2,0.4c-0.4,0.1-0.9,0.1-1.3,0.1c-1.8,0-3.1-0.6-4.1-1.8c-0.9-1.2-1.4-2.9-1.4-5.1c0-1.4,0.3-2.6,0.8-3.7
		c0.5-1.1,1.3-1.9,2.2-2.5c1-0.6,2.1-0.9,3.3-0.9c0.8,0,1.5,0,2.1,0.1C126.2,14.3,126.9,14.5,127.5,14.7z"/>
	<path d="M133.5,24.4c0,0.8,0,1.4,0.1,1.7c0.1,0.3,0.2,0.6,0.4,0.7c0.2,0.2,0.6,0.3,1,0.4v0.7h-5.6v-0.7c0.5-0.1,0.8-0.3,1-0.4
		c0.2-0.1,0.3-0.3,0.4-0.5c0.1-0.2,0.1-0.4,0.2-0.8s0-0.7,0-1.2V12.5c0-0.9,0-1.5,0-1.9c0-0.4-0.1-0.7-0.1-0.9s-0.1-0.4-0.3-0.6
		c-0.1-0.1-0.3-0.3-0.4-0.3c-0.2-0.1-0.5-0.2-1-0.3V7.8l3.4-0.1h0.8V24.4z"/>
	<path d="M148.9,25.5c-0.6,0.6-1.2,1.1-1.7,1.5c-0.5,0.4-1.1,0.6-1.7,0.8c-0.6,0.2-1.3,0.3-2,0.3c-1.9,0-3.4-0.6-4.4-1.7
		s-1.5-2.9-1.5-5.2c0-1.4,0.3-2.6,0.8-3.7c0.5-1.1,1.2-1.9,2.2-2.5c0.9-0.6,2-0.9,3.2-0.9c1,0,1.8,0.2,2.4,0.5
		c0.7,0.3,1.2,0.7,1.6,1.2c0.4,0.5,0.7,1.2,0.9,2c0.2,0.8,0.3,1.8,0.4,3.1h-8.9v0.3c0,1.1,0.1,2.1,0.4,2.8s0.7,1.4,1.2,1.8
		c0.6,0.4,1.3,0.6,2.2,0.6c0.8,0,1.5-0.1,2.1-0.4s1.2-0.8,1.8-1.4L148.9,25.5z M146.6,19.7c-0.1-1-0.2-1.9-0.4-2.5s-0.5-1.1-0.9-1.5
		c-0.4-0.3-0.9-0.5-1.6-0.5c-1,0-1.7,0.4-2.3,1.2c-0.6,0.8-0.9,1.9-1,3.3H146.6z"/>
</g>
<polyline class="st2" points="8.9,31.3 22.8,17 37.1,30.9 "/>
<path class="st3" d="M6.4,22.6"/>
<polygon class="st2" points="24.3,7.8 36.6,20.1 37,26.1 24.5,13.5 "/>
<polygon class="st2" points="21.1,7.9 9.1,20.2 8.8,26 21.1,13.6 "/>
</svg>
